<?xml version="1.0" encoding="UTF-8" standalone="no"?>
<!-- Created with Inkscape (http://www.inkscape.org/) -->

<svg
   xmlns:dc="http://purl.org/dc/elements/1.1/"
   xmlns:cc="http://creativecommons.org/ns#"
   xmlns:rdf="http://www.w3.org/1999/02/22-rdf-syntax-ns#"
   xmlns:svg="http://www.w3.org/2000/svg"
   xmlns="http://www.w3.org/2000/svg"
   xmlns:sodipodi="http://sodipodi.sourceforge.net/DTD/sodipodi-0.dtd"
   xmlns:inkscape="http://www.inkscape.org/namespaces/inkscape"
   width="210mm"
   height="297mm"
   id="svg3475"
   version="1.1"
   inkscape:version="0.91 r13725"
   sodipodi:docname="5mmsheet1.svg">
  <defs
     id="defs3" />
  <sodipodi:namedview
     inkscape:document-units="mm"
     id="base"
     pagecolor="#ffffff"
     bordercolor="#666666"
     borderopacity="1.0"
     inkscape:pageopacity="0.0"
     inkscape:pageshadow="2"
     inkscape:zoom="0.35"
     inkscape:cx="350"
     inkscape:cy="520"
     inkscape:current-layer="layer1"
     showgrid="false"
     inkscape:window-width="704"
     inkscape:window-height="894"
     inkscape:window-x="2640"
     inkscape:window-y="0"
     inkscape:window-maximized="0" />
  <metadata
     id="metadata4">
    <rdf:RDF>
      <cc:Work
         rdf:about="">
        <dc:format>image/svg+xml</dc:format>
        <dc:type
           rdf:resource="http://purl.org/dc/dcmitype/StillImage" />
        <dc:title />
      </cc:Work>
    </rdf:RDF>
  </metadata>
  <g
     inkscape:label="Layer 1"
     inkscape:groupmode="layer"
     id="layer1">
    <g
       id="Ortho_0_0"
       transform="matrix(3.5433071,0,0,3.5433071,196,196.07649)">
      <g
         style="fill:none;stroke:#000000;stroke-width:0.15000001;stroke-linecap:butt;stroke-linejoin:miter"
         transform="scale(1,-1)"
         id="g264">
        <circle
           cx="0"
           cy="0"
           r="50"
           id="circle266" />
        <path
           inkscape:connector-curvature="0"
           id="2"
           d="m 14,15 23.081,0" />
        <path
           inkscape:connector-curvature="0"
           d="m 37.081,15 a 40,40 0 0 1 -74.162,0"
           id="path269" />
        <path
           inkscape:connector-curvature="0"
           id="4"
           d="M -37.081,15 -14,15" />
        <path
           inkscape:connector-curvature="0"
           id="5"
           d="m -14,15 0,-30" />
        <path
           inkscape:connector-curvature="0"
           id="6"
           d="M -37.081,-15 -14,-15" />
        <path
           inkscape:connector-curvature="0"
           d="m -37.081,-15 a 40,40 0 0 1 74.162,0"
           id="path274" />
        <path
           inkscape:connector-curvature="0"
           id="8"
           d="m 14,-15 23.081,0" />
        <path
           inkscape:connector-curvature="0"
           id="9"
           d="m 14,15 0,-30" />
        <circle
           cx="35"
           cy="0"
           r="2.5"
           id="circle278" />
        <circle
           cx="-35"
           cy="0"
           r="2.5"
           id="circle280" />
        <path
           inkscape:connector-curvature="0"
           id="12"
           d="m 17,-7 3,0" />
        <path
           inkscape:connector-curvature="0"
           id="13"
           d="m 20,-7 0,-6" />
        <path
           inkscape:connector-curvature="0"
           id="14"
           d="m 20,-13 -3,0" />
        <path
           inkscape:connector-curvature="0"
           id="15"
           d="m 17,-13 0,6" />
        <path
           inkscape:connector-curvature="0"
           id="16"
           d="m 17,13 3,0" />
        <path
           inkscape:connector-curvature="0"
           id="17"
           d="M 20,13 20,7" />
        <path
           inkscape:connector-curvature="0"
           id="18"
           d="M 20,7 17,7" />
        <path
           inkscape:connector-curvature="0"
           id="19"
           d="m 17,7 0,6" />
        <path
           inkscape:connector-curvature="0"
           id="20"
           d="m -20,-7 3,0" />
        <path
           inkscape:connector-curvature="0"
           id="21"
           d="m -17,-7 0,-6" />
        <path
           inkscape:connector-curvature="0"
           id="22"
           d="m -17,-13 -3,0" />
        <path
           inkscape:connector-curvature="0"
           id="23"
           d="m -20,-13 0,6" />
        <path
           inkscape:connector-curvature="0"
           id="24"
           d="m -20,13 3,0" />
        <path
           inkscape:connector-curvature="0"
           id="25"
           d="m -17,13 0,-6" />
        <path
           inkscape:connector-curvature="0"
           id="26"
           d="m -17,7 -3,0" />
        <path
           inkscape:connector-curvature="0"
           id="27"
           d="m -20,7 0,6" />
        <circle
           cx="18.5"
           cy="0"
           r="1.5"
           id="circle298" />
        <circle
           cx="-18.5"
           cy="0"
           r="1.5"
           id="circle300" />
      </g>
    </g>
    <g
       id="Ortho_0_006"
       transform="matrix(3.5433071,0,0,3.5433071,562.85714,198.0765)">
      <g
         style="fill:none;stroke:#000000;stroke-width:0.15000001;stroke-linecap:butt;stroke-linejoin:miter"
         transform="scale(1,-1)"
         id="g442">
        <circle
           cx="0"
           cy="0"
           r="44"
           id="circle444" />
        <path
           inkscape:connector-curvature="0"
           id="path446"
           d="m -30,-15 5,0" />
        <path
           inkscape:connector-curvature="0"
           id="path448"
           d="m -25,15 0,-30" />
        <path
           inkscape:connector-curvature="0"
           id="path450"
           d="m -30,15 5,0" />
        <path
           inkscape:connector-curvature="0"
           id="path452"
           d="M -30,26.4575 -30,15" />
        <path
           inkscape:connector-curvature="0"
           d="m 30,26.4575 a 40,40 0 0 1 -60,0"
           id="path454" />
        <path
           inkscape:connector-curvature="0"
           id="path457"
           d="M 30,26.4575 30,15" />
        <path
           inkscape:connector-curvature="0"
           id="path459"
           d="m 30,15 -5,0" />
        <path
           inkscape:connector-curvature="0"
           id="path461"
           d="m 25,15 0,-30" />
        <path
           inkscape:connector-curvature="0"
           id="path463"
           d="m 25,-15 5,0" />
        <path
           inkscape:connector-curvature="0"
           id="path465"
           d="m 30,-15 0,-11.4575" />
        <path
           inkscape:connector-curvature="0"
           d="m -30,-26.4575 a 40,40 0 0 1 60,0"
           id="path467" />
        <path
           inkscape:connector-curvature="0"
           id="path469"
           d="m -30,-15 0,-11.4575" />
        <circle
           cx="-35"
           cy="0"
           r="2.5"
           id="circle471" />
        <circle
           cx="35"
           cy="0"
           r="2.5"
           id="circle473" />
      </g>
    </g>
    <g
       id="Ortho_0_001"
       transform="matrix(3.5433071,0,0,3.5433071,188.57143,540.93363)">
      <g
         style="fill:none;stroke:#000000;stroke-width:0.15000001;stroke-linecap:butt;stroke-linejoin:miter"
         transform="scale(1,-1)"
         id="g303">
        <circle
           cx="0"
           cy="0"
           r="44"
           id="circle305" />
        <circle
           cx="0"
           cy="0"
           r="40"
           id="circle307" />
      </g>
    </g>
    <g
       id="Ortho_0_002"
       transform="matrix(3.5433071,0,0,3.5433071,545.71428,540.93363)">
      <g
         style="fill:none;stroke:#000000;stroke-width:0.15000001;stroke-linecap:butt;stroke-linejoin:miter"
         transform="scale(1,-1)"
         id="g310">
        <circle
           cx="0"
           cy="0"
           r="47"
           id="circle312" />
        <circle
           cx="0"
           cy="0"
           r="19"
           id="circle314" />
        <circle
           cx="5"
           cy="35"
           r="1.5"
           id="circle316" />
        <path
           inkscape:connector-curvature="0"
           d="M -20,22.3607 A 30,30 0 0 1 -28.2843,10"
           id="path318" />
        <path
           inkscape:connector-curvature="0"
           id="path320"
           d="m -38.7298,10 10.4455,0" />
        <path
           inkscape:connector-curvature="0"
           d="M -20,34.641 A 40,40 0 0 1 -38.7298,10"
           id="path322" />
        <path
           inkscape:connector-curvature="0"
           id="7"
           d="m -20,22.3607 0,12.2803" />
        <path
           inkscape:connector-curvature="0"
           d="M -28.2843,-10 A 30,30 0 0 1 -20,-22.3607"
           id="path325" />
        <path
           inkscape:connector-curvature="0"
           id="path327"
           d="m -20,-22.3607 0,-12.2803" />
        <path
           inkscape:connector-curvature="0"
           d="M -38.7298,-10 A 40,40 0 0 1 -20,-34.641"
           id="path329" />
        <path
           inkscape:connector-curvature="0"
           id="11"
           d="m -38.7298,-10 10.4455,0" />
        <path
           inkscape:connector-curvature="0"
           id="path332"
           d="M 20,-22.3607 20,-34.641" />
        <path
           inkscape:connector-curvature="0"
           d="M 20,-22.3607 A 30,30 0 0 1 28.2843,-10"
           id="path334" />
        <path
           inkscape:connector-curvature="0"
           id="path336"
           d="m 28.2843,-10 10.4455,0" />
        <path
           inkscape:connector-curvature="0"
           d="M 20,-34.641 A 40,40 0 0 1 38.7298,-10"
           id="path338" />
        <circle
           cx="-5"
           cy="-35"
           r="1.5"
           id="circle340" />
        <circle
           cx="5"
           cy="-35"
           r="1.5"
           id="circle342" />
        <path
           inkscape:connector-curvature="0"
           d="M 28.2843,10 A 30,30 0 0 1 20,22.3607"
           id="path344" />
        <path
           inkscape:connector-curvature="0"
           id="path346"
           d="M 20,22.3607 20,34.641" />
        <path
           inkscape:connector-curvature="0"
           d="M 38.7298,10 A 40,40 0 0 1 20,34.641"
           id="path348" />
        <path
           inkscape:connector-curvature="0"
           id="path350"
           d="m 28.2843,10 10.4455,0" />
        <circle
           cx="-35"
           cy="0"
           r="2.5"
           id="circle352" />
        <circle
           cx="35"
           cy="0"
           r="2.5"
           id="circle354" />
        <circle
           cx="-5"
           cy="35"
           r="1.5"
           id="circle356" />
      </g>
    </g>
    <g
       id="Ortho_0_004"
       transform="matrix(3.5433071,0,0,3.5433071,194.28571,872.3622)">
      <g
         style="fill:none;stroke:#000000;stroke-width:0.15000001;stroke-linecap:butt;stroke-linejoin:miter"
         transform="scale(1,-1)"
         id="g395">
        <circle
           cx="0"
           cy="0"
           r="47"
           id="circle397" />
        <path
           inkscape:connector-curvature="0"
           id="path399"
           d="m -12.5,30 25,0" />
        <path
           inkscape:connector-curvature="0"
           id="3"
           d="m 12.5,30 0,-20" />
        <path
           inkscape:connector-curvature="0"
           id="path402"
           d="m 12.5,10 -25,0" />
        <path
           inkscape:connector-curvature="0"
           id="path404"
           d="m -12.5,10 0,20" />
        <circle
           cx="0"
           cy="0"
           r="3"
           id="circle406" />
        <circle
           cx="-35"
           cy="0"
           r="2.5"
           id="circle408" />
        <path
           inkscape:connector-curvature="0"
           id="path410"
           d="m 7.5,-15 0,-15" />
        <path
           inkscape:connector-curvature="0"
           d="m -7.5,-30 a 7.5,7.5 0 0 1 15,0"
           id="path412" />
        <path
           inkscape:connector-curvature="0"
           id="path414"
           d="m -7.5,-15 0,-15" />
        <path
           inkscape:connector-curvature="0"
           d="m 7.5,-15 a 7.5,7.5 0 1 1 -15,0"
           id="path416" />
        <circle
           cx="35"
           cy="0"
           r="2.5"
           id="circle418" />
      </g>
    </g>
    <g
       id="Ortho_0_005"
       transform="matrix(3.5433071,0,0,3.5433071,554.28572,878.07649)">
      <g
         style="fill:none;stroke:#000000;stroke-width:0.15000001;stroke-linecap:butt;stroke-linejoin:miter"
         transform="scale(1,-1)"
         id="g421">
        <circle
           cx="0"
           cy="0"
           r="44"
           id="circle423" />
        <path
           inkscape:connector-curvature="0"
           id="path425"
           d="m -2.5,26 0,4" />
        <path
           inkscape:connector-curvature="0"
           id="path427"
           d="m -2.5,30 15,0" />
        <path
           inkscape:connector-curvature="0"
           id="path429"
           d="m 12.5,30 0,-4" />
        <path
           inkscape:connector-curvature="0"
           id="path431"
           d="m 12.5,26 -15,0" />
        <circle
           cx="0"
           cy="0"
           r="4"
           id="circle433" />
        <circle
           cx="0"
           cy="-15"
           r="7.5"
           id="circle435" />
        <circle
           cx="35"
           cy="0"
           r="2.5"
           id="circle437" />
        <circle
           cx="-35"
           cy="0"
           r="2.5"
           id="circle439" />
      </g>
    </g>
  </g>
</svg>
