<?xml version="1.0" encoding="UTF-8" standalone="no"?>
<!-- Created with Inkscape (http://www.inkscape.org/) -->

<svg
   xmlns:dc="http://purl.org/dc/elements/1.1/"
   xmlns:cc="http://creativecommons.org/ns#"
   xmlns:rdf="http://www.w3.org/1999/02/22-rdf-syntax-ns#"
   xmlns:svg="http://www.w3.org/2000/svg"
   xmlns="http://www.w3.org/2000/svg"
   xmlns:sodipodi="http://sodipodi.sourceforge.net/DTD/sodipodi-0.dtd"
   xmlns:inkscape="http://www.inkscape.org/namespaces/inkscape"
   width="210mm"
   height="297mm"
   id="svg3878"
   version="1.1"
   inkscape:version="0.91 r13725"
   sodipodi:docname="5mmsheet2.svg">
  <defs
     id="defs3" />
  <sodipodi:namedview
     inkscape:document-units="mm"
     id="base"
     pagecolor="#ffffff"
     bordercolor="#666666"
     borderopacity="1.0"
     inkscape:pageopacity="0.0"
     inkscape:pageshadow="2"
     inkscape:zoom="0.35"
     inkscape:cx="-2.8571429"
     inkscape:cy="520"
     inkscape:current-layer="layer1"
     showgrid="false"
     inkscape:window-width="1180"
     inkscape:window-height="565"
     inkscape:window-x="2136"
     inkscape:window-y="188"
     inkscape:window-maximized="0" />
  <metadata
     id="metadata4">
    <rdf:RDF>
      <cc:Work
         rdf:about="">
        <dc:format>image/svg+xml</dc:format>
        <dc:type
           rdf:resource="http://purl.org/dc/dcmitype/StillImage" />
        <dc:title />
      </cc:Work>
    </rdf:RDF>
  </metadata>
  <g
     inkscape:label="Layer 1"
     inkscape:groupmode="layer"
     id="layer1">
    <g
       id="Ortho_0_003"
       transform="matrix(3.5433071,0,0,3.5433071,214.28571,195.21935)">
      <g
         style="fill:none;stroke:#000000;stroke-width:0.15000001;stroke-linecap:butt;stroke-linejoin:miter"
         transform="scale(1,-1)"
         id="g359">
        <circle
           cx="0"
           cy="0"
           r="50"
           id="circle361" />
        <path
           inkscape:connector-curvature="0"
           id="path363"
           d="m -5,24.5 0,-9" />
        <path
           inkscape:connector-curvature="0"
           d="m 5,24.5 a 5,5 0 0 1 -10,0"
           id="path365" />
        <path
           inkscape:connector-curvature="0"
           id="path367"
           d="m 5,24.5 0,-9" />
        <path
           inkscape:connector-curvature="0"
           d="m -5,15.5 a 5,5 0 0 1 10,0"
           id="path369" />
        <path
           inkscape:connector-curvature="0"
           id="path371"
           d="m 12.5,24.5 0,-9" />
        <path
           inkscape:connector-curvature="0"
           d="m 7.5,15.5 a 2.5,2.5 0 1 1 5,0"
           id="path373" />
        <path
           inkscape:connector-curvature="0"
           id="path375"
           d="m 7.5,24.5 0,-9" />
        <path
           inkscape:connector-curvature="0"
           d="m 12.5,24.5 a 2.5,2.5 0 1 1 -5,0"
           id="path377" />
        <path
           inkscape:connector-curvature="0"
           id="10"
           d="m -7.5,24.5 0,-9" />
        <path
           inkscape:connector-curvature="0"
           d="m -12.5,15.5 a 2.5,2.5 0 1 1 5,0"
           id="path380" />
        <path
           inkscape:connector-curvature="0"
           id="path382"
           d="m -12.5,24.5 0,-9" />
        <path
           inkscape:connector-curvature="0"
           d="m -7.5,24.5 a 2.5,2.5 0 1 1 -5,0"
           id="path384" />
        <circle
           cx="35"
           cy="0"
           r="8"
           id="circle386" />
        <circle
           cx="0"
           cy="0"
           r="5"
           id="circle388" />
        <circle
           cx="0"
           cy="-30"
           r="7.5"
           id="circle390" />
        <circle
           cx="-35"
           cy="0"
           r="8"
           id="circle392" />
      </g>
    </g>
  </g>
</svg>
