<?xml version="1.0" encoding="UTF-8" standalone="no"?>
<!-- Created with Inkscape (http://www.inkscape.org/) -->

<svg
   xmlns:dc="http://purl.org/dc/elements/1.1/"
   xmlns:cc="http://creativecommons.org/ns#"
   xmlns:rdf="http://www.w3.org/1999/02/22-rdf-syntax-ns#"
   xmlns:svg="http://www.w3.org/2000/svg"
   xmlns="http://www.w3.org/2000/svg"
   xmlns:sodipodi="http://sodipodi.sourceforge.net/DTD/sodipodi-0.dtd"
   xmlns:inkscape="http://www.inkscape.org/namespaces/inkscape"
   width="210mm"
   height="297mm"
   viewBox="0 0 210 297"
   id="svg3727"
   version="1.1"
   inkscape:version="0.91 r13725"
   sodipodi:docname="bottomcap5mm.svg">
  <defs
     id="defs3" />
  <sodipodi:namedview
     inkscape:document-units="mm"
     id="base"
     pagecolor="#ffffff"
     bordercolor="#666666"
     borderopacity="1.0"
     inkscape:pageopacity="0.0"
     inkscape:pageshadow="2"
     inkscape:zoom="0.35"
     inkscape:cx="350"
     inkscape:cy="520"
     inkscape:current-layer="layer1"
     showgrid="false"
     inkscape:window-width="718"
     inkscape:window-height="888"
     inkscape:window-x="-7"
     inkscape:window-y="0"
     inkscape:window-maximized="0" />
  <metadata
     id="metadata4">
    <rdf:RDF>
      <cc:Work
         rdf:about="">
        <dc:format>image/svg+xml</dc:format>
        <dc:type
           rdf:resource="http://purl.org/dc/dcmitype/StillImage" />
        <dc:title></dc:title>
      </cc:Work>
    </rdf:RDF>
  </metadata>
  <g
     inkscape:label="Layer 1"
     inkscape:groupmode="layer"
     id="layer1">
    <g
       id="Ortho_0_0"
       transform="translate(55.638096,54.288889)">
      <g
         style="fill:none;stroke:#000000;stroke-width:0.15000001;stroke-linecap:butt;stroke-linejoin:miter"
         transform="scale(1,-1)"
         id="g264">
        <circle
           cx="0"
           cy="0"
           r="50"
           id="circle266" />
        <path
           inkscape:connector-curvature="0"
           d="m -14.1421,-14.1421 a 5.0000228,5.0000228 0 0 1 -7.0711,-7.0711"
           id="path268" />
        <path
           inkscape:connector-curvature="0"
           id="3"
           d="M -14.1421,-14.1421 3.53553,-31.8198" />
        <path
           inkscape:connector-curvature="0"
           d="m -3.53553,-38.8909 a 5.0000086,5.0000086 0 0 1 7.07106,7.0711"
           id="path271" />
        <path
           inkscape:connector-curvature="0"
           id="5"
           d="M -21.2132,-21.2132 -3.53553,-38.8909" />
        <circle
           cx="25"
           cy="0"
           r="6"
           id="circle274" />
        <circle
           cx="0"
           cy="0"
           r="1.5"
           id="circle276" />
        <circle
           cx="-35"
           cy="0"
           r="8"
           id="circle278" />
      </g>
    </g>
    <g
       id="Ortho_0_001"
       transform="translate(156.43175,54.288889)">
      <g
         style="fill:none;stroke:#000000;stroke-width:0.15000001;stroke-linecap:butt;stroke-linejoin:miter"
         transform="scale(1,-1)"
         id="g281">
        <circle
           cx="0"
           cy="0"
           r="47"
           id="circle283" />
        <circle
           cx="-35"
           cy="0"
           r="3.5"
           id="circle285" />
        <path
           inkscape:connector-curvature="0"
           id="path287"
           d="M 5,-35.3553 5,-15" />
        <path
           inkscape:connector-curvature="0"
           d="m 5,-15 a 5,5 0 0 1 -1.46447,3.5355"
           id="path289" />
        <path
           inkscape:connector-curvature="0"
           id="path291"
           d="M -14.1421,6.2132 3.53553,-11.4645" />
        <path
           inkscape:connector-curvature="0"
           d="M -14.1421,6.2132 A 5,5 0 0 1 -22.6777,2.67767"
           id="path293" />
        <path
           inkscape:connector-curvature="0"
           id="7"
           d="m -22.6777,-17.6777 0,20.35537" />
        <path
           inkscape:connector-curvature="0"
           d="m -22.6777,-17.6777 a 5,5 0 0 1 1.4645,-3.5355"
           id="path296" />
        <path
           inkscape:connector-curvature="0"
           id="9"
           d="M -21.2132,-21.2132 -3.53553,-38.8909" />
        <path
           inkscape:connector-curvature="0"
           d="M -3.53553,-38.8909 A 5,5 0 0 1 5,-35.3553"
           id="path299" />
        <circle
           cx="0"
           cy="0"
           r="1.5"
           id="circle301" />
        <circle
           cx="25"
           cy="0"
           r="4"
           id="circle303" />
      </g>
    </g>
    <g
       id="Ortho_0_002"
       transform="translate(55.638118,156.69524)">
      <g
         style="fill:none;stroke:#000000;stroke-width:0.15000001;stroke-linecap:butt;stroke-linejoin:miter"
         transform="scale(1,-1)"
         id="g306">
        <path
           inkscape:connector-curvature="0"
           d="M 47,0 A 47,47 0 0 1 46.4277,7.31245"
           id="path308" />
        <path
           inkscape:connector-curvature="0"
           id="2"
           d="M 7.31245,46.4277 46.4277,7.31245" />
        <path
           inkscape:connector-curvature="0"
           d="m 7.31245,46.4277 a 47,47 0 0 1 -14.6249,0"
           id="path311" />
        <path
           inkscape:connector-curvature="0"
           id="4"
           d="M -46.4277,7.31245 -7.31245,46.4277" />
        <path
           inkscape:connector-curvature="0"
           d="m -46.4277,7.31245 a 47,47 0 0 1 0,-14.6249"
           id="path314" />
        <path
           inkscape:connector-curvature="0"
           id="6"
           d="M -46.4277,-7.31245 -7.31245,-46.4277" />
        <path
           inkscape:connector-curvature="0"
           d="m -7.31245,-46.4277 a 47,47 0 0 1 14.6249,0"
           id="path317" />
        <path
           inkscape:connector-curvature="0"
           id="8"
           d="M 7.31245,-46.4277 46.4277,-7.31245" />
        <path
           inkscape:connector-curvature="0"
           d="M 46.4277,-7.31245 A 47,47 0 0 1 47,0"
           id="path320" />
        <circle
           cx="0"
           cy="0"
           r="1.5"
           id="circle322" />
        <path
           inkscape:connector-curvature="0"
           d="m -14.1421,6.2132 a 5.00001,5.00001 0 1 1 -7.0711,-7.071064"
           id="path324" />
        <path
           inkscape:connector-curvature="0"
           id="12"
           d="M -14.1421,6.2132 3.53553,-11.4645" />
        <path
           inkscape:connector-curvature="0"
           d="m -3.53553,-18.5355 a 5,5 0 0 1 7.07106,7.071"
           id="path327" />
        <path
           inkscape:connector-curvature="0"
           id="14"
           d="M -21.2132,-0.857864 -3.53553,-18.5355" />
        <circle
           cx="25"
           cy="0"
           r="4"
           id="circle330" />
        <circle
           cx="-35"
           cy="0"
           r="3.5"
           id="circle332" />
      </g>
    </g>
    <g
       id="Ortho_0_003"
       transform="translate(157.23811,155.08254)">
      <g
         style="fill:none;stroke:#000000;stroke-width:0.15000001;stroke-linecap:butt;stroke-linejoin:miter"
         transform="scale(1,-1)"
         id="g335">
        <path
           inkscape:connector-curvature="0"
           d="M 47,0 A 47,47 0 0 1 46.4277,7.31245"
           id="path337" />
        <path
           inkscape:connector-curvature="0"
           id="path339"
           d="M 7.31245,46.4277 46.4277,7.31245" />
        <path
           inkscape:connector-curvature="0"
           d="m 7.31245,46.4277 a 47,47 0 0 1 -14.6249,0"
           id="path341" />
        <path
           inkscape:connector-curvature="0"
           id="path343"
           d="M -46.4277,7.31245 -7.31245,46.4277" />
        <path
           inkscape:connector-curvature="0"
           d="m -46.4277,7.31245 a 47,47 0 0 1 0,-14.6249"
           id="path345" />
        <path
           inkscape:connector-curvature="0"
           id="path347"
           d="M -46.4277,-7.31245 -7.31245,-46.4277" />
        <path
           inkscape:connector-curvature="0"
           d="m -7.31245,-46.4277 a 47,47 0 0 1 14.6249,0"
           id="path349" />
        <path
           inkscape:connector-curvature="0"
           id="path351"
           d="M 7.31245,-46.4277 46.4277,-7.31245" />
        <path
           inkscape:connector-curvature="0"
           d="M 46.4277,-7.31245 A 47,47 0 0 1 47,0"
           id="path353" />
        <circle
           cx="-35"
           cy="0"
           r="3.5"
           id="circle355" />
        <circle
           cx="0"
           cy="0"
           r="1.5"
           id="circle357" />
        <path
           inkscape:connector-curvature="0"
           id="path359"
           d="M -21.2132,-0.857864 -3.53553,-18.5355" />
        <path
           inkscape:connector-curvature="0"
           d="m -14.1421,6.2132 a 5.00001,5.00001 0 0 1 -7.0711,-7.071064"
           id="path361" />
        <path
           inkscape:connector-curvature="0"
           id="path363"
           d="M -14.1421,6.2132 3.53553,-11.4645" />
        <path
           inkscape:connector-curvature="0"
           d="m -3.53553,-18.5355 a 5,5 0 1 1 7.07106,7.071"
           id="path365" />
        <circle
           cx="25"
           cy="0"
           r="9"
           id="circle367" />
      </g>
    </g>
    <g
       id="Ortho_0_004"
       transform="translate(104.01904,239.74921)">
      <g
         style="fill:none;stroke:#000000;stroke-width:0.15000001;stroke-linecap:butt;stroke-linejoin:miter"
         transform="scale(1,-1)"
         id="g370">
        <circle
           cx="0"
           cy="0"
           r="45"
           id="circle372" />
        <circle
           cx="0"
           cy="0"
           r="40"
           id="circle374" />
      </g>
    </g>
  </g>
</svg>
