<?xml version="1.0" encoding="UTF-8" standalone="no"?>
<!-- Created with Inkscape (http://www.inkscape.org/) -->

<svg
   xmlns:dc="http://purl.org/dc/elements/1.1/"
   xmlns:cc="http://creativecommons.org/ns#"
   xmlns:rdf="http://www.w3.org/1999/02/22-rdf-syntax-ns#"
   xmlns:svg="http://www.w3.org/2000/svg"
   xmlns="http://www.w3.org/2000/svg"
   xmlns:sodipodi="http://sodipodi.sourceforge.net/DTD/sodipodi-0.dtd"
   xmlns:inkscape="http://www.inkscape.org/namespaces/inkscape"
   width="210mm"
   height="297mm"
   viewBox="0 0 210 297"
   id="svg3500"
   version="1.1"
   inkscape:version="0.91 r13725"
   sodipodi:docname="topcap3mm.svg">
  <defs
     id="defs3" />
  <sodipodi:namedview
     inkscape:document-units="mm"
     id="base"
     pagecolor="#ffffff"
     bordercolor="#666666"
     borderopacity="1.0"
     inkscape:pageopacity="0.0"
     inkscape:pageshadow="2"
     inkscape:zoom="0.35"
     inkscape:cx="350"
     inkscape:cy="520"
     inkscape:current-layer="layer1"
     showgrid="false"
     inkscape:window-width="719"
     inkscape:window-height="888"
     inkscape:window-x="1929"
     inkscape:window-y="17"
     inkscape:window-maximized="0" />
  <metadata
     id="metadata4">
    <rdf:RDF>
      <cc:Work
         rdf:about="">
        <dc:format>image/svg+xml</dc:format>
        <dc:type
           rdf:resource="http://purl.org/dc/dcmitype/StillImage" />
        <dc:title />
      </cc:Work>
    </rdf:RDF>
  </metadata>
  <g
     inkscape:label="Layer 1"
     inkscape:groupmode="layer"
     id="layer1">
    <g
       id="Ortho_0_004"
       transform="translate(54.831742,51.063494)">
      <g
         style="fill:none;stroke:#000000;stroke-width:0.15000001;stroke-linecap:butt;stroke-linejoin:miter"
         transform="scale(1,-1)"
         id="g395">
        <circle
           cx="0"
           cy="0"
           r="47"
           id="circle397" />
        <path
           inkscape:connector-curvature="0"
           id="path399"
           d="M -30,16 -30,2.5" />
        <path
           inkscape:connector-curvature="0"
           id="path401"
           d="m -35,2.5 5,0" />
        <path
           inkscape:connector-curvature="0"
           d="m -35,2.5 a 2.5,2.5 0 0 1 0,-5"
           id="path403" />
        <path
           inkscape:connector-curvature="0"
           id="path405"
           d="m -30,-2.5 -5,0" />
        <path
           inkscape:connector-curvature="0"
           id="path407"
           d="m -4,-2.5 -26,0" />
        <path
           inkscape:connector-curvature="0"
           id="path409"
           d="m -4,-2.5 0,36.2639" />
        <path
           inkscape:connector-curvature="0"
           d="M -30,16 A 34,34 0 0 0 -4,33.7639"
           id="path411" />
        <circle
           cx="0"
           cy="0"
           r="1.5"
           id="circle413" />
        <path
           inkscape:connector-curvature="0"
           d="M 4,33.7639 A 34,34 0 0 0 30,16"
           id="path415" />
        <path
           inkscape:connector-curvature="0"
           id="path417"
           d="M 4,-2.5 4,33.7639" />
        <path
           inkscape:connector-curvature="0"
           id="path419"
           d="m 30,-2.5 -26,0" />
        <path
           inkscape:connector-curvature="0"
           id="path421"
           d="m 35,-2.5 -5,0" />
        <path
           inkscape:connector-curvature="0"
           d="m 35,-2.5 a 2.5,2.5 0 0 1 0,5"
           id="path423" />
        <path
           inkscape:connector-curvature="0"
           id="path425"
           d="m 30,2.5 5,0" />
        <path
           inkscape:connector-curvature="0"
           id="16"
           d="M 30,16 30,2.5" />
        <circle
           cx="0"
           cy="-20"
           r="13"
           id="circle428" />
      </g>
    </g>
    <g
       id="Ortho_0_006-5"
       transform="translate(154.81905,53.482547)">
      <g
         style="fill:none;stroke:#000000;stroke-width:0.15000001;stroke-linecap:butt;stroke-linejoin:miter"
         transform="scale(1,-1)"
         id="g453">
        <circle
           cx="0"
           cy="0"
           r="47"
           id="circle455" />
        <path
           inkscape:connector-curvature="0"
           d="M 39.9218,-2.5 A 40,40 0 0 1 4,39.7995"
           id="path457" />
        <path
           inkscape:connector-curvature="0"
           id="path459"
           d="M 4,39.7995 4,-2.5" />
        <path
           inkscape:connector-curvature="0"
           id="path461"
           d="M 39.9218,-2.5 4,-2.5" />
        <path
           inkscape:connector-curvature="0"
           id="path463"
           d="M -4,39.7995 -4,-2.5" />
        <path
           inkscape:connector-curvature="0"
           id="path465"
           d="m -4,-2.5 -35.9218,0" />
        <path
           inkscape:connector-curvature="0"
           d="M -4,39.7995 A 40,40 0 0 1 -39.9218,-2.5"
           id="path467" />
        <circle
           cx="0"
           cy="-20"
           r="13"
           id="circle469" />
        <circle
           cx="0"
           cy="0"
           r="1.5"
           id="circle471" />
      </g>
    </g>
  </g>
</svg>
